<svg width="38" height="38" viewBox="0 0 38 38" fill="none" xmlns="http://www.w3.org/2000/svg">
<g filter="url(#filter0_dd_110_306)">
<circle cx="18" cy="18" r="14" fill="#FF5319"/>
<circle cx="18" cy="18" r="13.5" stroke="white"/>
</g>
<path d="M18 12C14.6864 12 12 14.6864 12 18C12 21.3136 14.6864 24 18 24C21.3136 24 24 21.3136 24 18C24 14.6864 21.3136 12 18 12ZM22.0357 14.9245C22.6678 15.7521 23.0508 16.7788 23.0742 17.8927C22.0403 17.6972 20.8447 17.6017 19.5764 17.8576C19.425 17.5062 19.266 17.1558 19.095 16.8083C20.5874 16.1841 21.5382 15.4105 22.0357 14.9245ZM21.4075 14.2398C20.9758 14.6571 20.0878 15.3835 18.6598 15.9704C18.1131 14.9628 17.4891 13.9853 16.8 13.0678C17.1849 12.9738 17.5865 12.9231 18 12.9231C19.3101 12.9231 20.5059 13.422 21.4075 14.2398ZM15.8825 13.3876C16.5877 14.3001 17.2253 15.2772 17.7817 16.2868C16.5372 16.6798 14.9732 16.9419 13.0505 16.8748C13.4028 15.3231 14.4678 14.0398 15.8825 13.3876ZM12.9231 18C12.9231 17.9308 12.9256 17.8618 12.9284 17.7932C13.185 17.8038 13.4379 17.8108 13.6832 17.8108C15.5088 17.8108 17.0102 17.5292 18.2257 17.1305C18.3852 17.451 18.5342 17.7741 18.6764 18.0981C17.2302 18.5825 15.7198 19.5778 14.2685 21.438C13.434 20.5329 12.9231 19.3253 12.9231 18ZM14.9545 22.0592C16.3066 20.307 17.6926 19.3832 19.0288 18.9496C19.5127 20.1978 19.8579 21.4491 20.0405 22.6475C19.4155 22.9228 18.7255 23.0769 18 23.0769C16.8582 23.0769 15.8035 22.6978 14.9545 22.0592ZM20.8994 22.164C20.7023 21.0427 20.373 19.8831 19.9313 18.7262C21.0212 18.5363 22.0634 18.6316 23.0098 18.8202C22.7845 20.2004 22.0011 21.3946 20.8994 22.164Z" fill="white"/>
<defs>
<filter id="filter0_dd_110_306" x="0" y="0" width="38" height="38" filterUnits="userSpaceOnUse" color-interpolation-filters="sRGB">
<feFlood flood-opacity="0" result="BackgroundImageFix"/>
<feColorMatrix in="SourceAlpha" type="matrix" values="0 0 0 0 0 0 0 0 0 0 0 0 0 0 0 0 0 0 127 0" result="hardAlpha"/>
<feOffset dx="1" dy="1"/>
<feGaussianBlur stdDeviation="2.5"/>
<feComposite in2="hardAlpha" operator="out"/>
<feColorMatrix type="matrix" values="0 0 0 0 1 0 0 0 0 0.32549 0 0 0 0 0.0980392 0 0 0 0.6 0"/>
<feBlend mode="normal" in2="BackgroundImageFix" result="effect1_dropShadow_110_306"/>
<feColorMatrix in="SourceAlpha" type="matrix" values="0 0 0 0 0 0 0 0 0 0 0 0 0 0 0 0 0 0 127 0" result="hardAlpha"/>
<feOffset dy="1"/>
<feGaussianBlur stdDeviation="2"/>
<feComposite in2="hardAlpha" operator="out"/>
<feColorMatrix type="matrix" values="0 0 0 0 0 0 0 0 0 0 0 0 0 0 0 0 0 0 0.2 0"/>
<feBlend mode="normal" in2="effect1_dropShadow_110_306" result="effect2_dropShadow_110_306"/>
<feBlend mode="normal" in="SourceGraphic" in2="effect2_dropShadow_110_306" result="shape"/>
</filter>
</defs>
</svg>
