<svg width="38" height="38" viewBox="0 0 38 38" fill="none" xmlns="http://www.w3.org/2000/svg">
<g filter="url(#filter0_dd_110_309)">
<circle cx="18" cy="18" r="14" fill="#FF5319"/>
<circle cx="18" cy="18" r="13.5" stroke="white"/>
</g>
<path d="M13.3333 12C12.5967 12 12 12.5967 12 13.3333V22.6667C12 23.4033 12.5967 24 13.3333 24H22.6667C23.4033 24 24 23.4033 24 22.6667V13.3333C24 12.5967 23.4033 12 22.6667 12H13.3333ZM13.3333 13.3333H22.6667V22.6667H13.3333V13.3333ZM15.1862 14.2109C14.6149 14.2109 14.2721 14.5544 14.2721 15.0117C14.2721 15.4691 14.6149 15.8112 15.1289 15.8112C15.7002 15.8112 16.043 15.4691 16.043 15.0117C16.043 14.5544 15.7002 14.2109 15.1862 14.2109ZM14.3177 16.6667V21.3333H16V16.6667H14.3177ZM17.388 16.6667V21.3333H19.0703V18.7826C19.0703 18.0232 19.6121 17.9141 19.7747 17.9141C19.9374 17.9141 20.3724 18.0772 20.3724 18.7826V21.3333H22V18.7826C22 17.3179 21.3492 16.6667 20.5352 16.6667C19.7212 16.6667 19.287 16.9377 19.0703 17.3177V16.6667H17.388Z" fill="white"/>
<defs>
<filter id="filter0_dd_110_309" x="0" y="0" width="38" height="38" filterUnits="userSpaceOnUse" color-interpolation-filters="sRGB">
<feFlood flood-opacity="0" result="BackgroundImageFix"/>
<feColorMatrix in="SourceAlpha" type="matrix" values="0 0 0 0 0 0 0 0 0 0 0 0 0 0 0 0 0 0 127 0" result="hardAlpha"/>
<feOffset dx="1" dy="1"/>
<feGaussianBlur stdDeviation="2.5"/>
<feComposite in2="hardAlpha" operator="out"/>
<feColorMatrix type="matrix" values="0 0 0 0 1 0 0 0 0 0.32549 0 0 0 0 0.0980392 0 0 0 0.6 0"/>
<feBlend mode="normal" in2="BackgroundImageFix" result="effect1_dropShadow_110_309"/>
<feColorMatrix in="SourceAlpha" type="matrix" values="0 0 0 0 0 0 0 0 0 0 0 0 0 0 0 0 0 0 127 0" result="hardAlpha"/>
<feOffset dy="1"/>
<feGaussianBlur stdDeviation="2"/>
<feComposite in2="hardAlpha" operator="out"/>
<feColorMatrix type="matrix" values="0 0 0 0 0 0 0 0 0 0 0 0 0 0 0 0 0 0 0.2 0"/>
<feBlend mode="normal" in2="effect1_dropShadow_110_309" result="effect2_dropShadow_110_309"/>
<feBlend mode="normal" in="SourceGraphic" in2="effect2_dropShadow_110_309" result="shape"/>
</filter>
</defs>
</svg>
