<svg width="114" height="117" viewBox="0 0 114 117" fill="none" xmlns="http://www.w3.org/2000/svg">
<g clip-path="url(#clip0_110_69)">
<path d="M57.0477 108.085C84.685 108.085 107.09 85.6814 107.09 58.0454C107.09 30.4093 84.685 8.00586 57.0477 8.00586C29.4104 8.00586 7.00586 30.4093 7.00586 58.0454C7.00586 85.6814 29.4104 108.085 57.0477 108.085Z" stroke="black" stroke-width="12"/>
<path d="M99.4281 31.4143C105.335 40.8102 107.95 51.9026 106.864 62.9474C105.778 73.9921 101.052 84.3627 93.4288 92.4284C85.8054 100.494 75.7173 105.797 64.7509 107.504C53.7844 109.211 42.5616 107.225 32.8472 101.858C23.1328 96.4913 15.4777 88.0479 11.0858 77.8559C6.69385 67.6638 5.81414 56.3011 8.58499 45.5545C11.3558 34.8079 17.6201 25.2871 26.3927 18.489C35.1653 11.6909 45.9487 8.00114 57.0472 8" stroke="#47CCCC" stroke-width="12" stroke-linecap="round"/>
<path d="M46.7217 62.3359C46.7217 63.3984 46.4717 64.2969 45.9717 65.0312C45.4795 65.7578 44.8038 66.3086 43.9444 66.6836C43.0928 67.0508 42.1241 67.2344 41.0381 67.2344C39.96 67.2344 38.9874 67.0508 38.1202 66.6836C37.2608 66.3086 36.5772 65.7578 36.0694 65.0312C35.5694 64.2969 35.3194 63.3984 35.3194 62.3359C35.3194 61.625 35.46 60.9805 35.7413 60.4023C36.0303 59.8242 36.4288 59.3281 36.9366 58.9141C37.4444 58.4922 38.046 58.1719 38.7413 57.9531C39.4366 57.7266 40.1944 57.6133 41.0147 57.6133C42.1085 57.6133 43.085 57.8125 43.9444 58.2109C44.8116 58.6016 45.4913 59.1523 45.9835 59.8633C46.4756 60.5664 46.7217 61.3906 46.7217 62.3359ZM43.6045 62.1484C43.6045 61.6016 43.4952 61.1289 43.2764 60.7305C43.0655 60.3242 42.7647 60.0117 42.3741 59.793C41.9835 59.5742 41.5303 59.4648 41.0147 59.4648C40.4913 59.4648 40.0342 59.5742 39.6436 59.793C39.2608 60.0117 38.96 60.3242 38.7413 60.7305C38.5303 61.1289 38.4249 61.6016 38.4249 62.1484C38.4249 62.7031 38.5303 63.1797 38.7413 63.5781C38.96 63.9688 39.2647 64.2695 39.6553 64.4805C40.046 64.6914 40.5069 64.7969 41.0381 64.7969C41.5694 64.7969 42.0264 64.6914 42.4092 64.4805C42.792 64.2695 43.085 63.9688 43.2881 63.5781C43.4991 63.1797 43.6045 62.7031 43.6045 62.1484ZM46.3467 54.4375C46.3467 55.2969 46.1202 56.0625 45.667 56.7344C45.2139 57.3984 44.585 57.918 43.7803 58.293C42.9835 58.668 42.0694 58.8555 41.0381 58.8555C40.0069 58.8555 39.085 58.668 38.2725 58.293C37.4678 57.918 36.835 57.3984 36.3741 56.7344C35.921 56.0625 35.6944 55.2969 35.6944 54.4375C35.6944 53.4219 35.9249 52.5625 36.3858 51.8594C36.8467 51.1484 37.4756 50.6094 38.2725 50.2422C39.0772 49.875 39.9913 49.6914 41.0147 49.6914C42.0538 49.6914 42.9756 49.875 43.7803 50.2422C44.585 50.6094 45.2139 51.1484 45.667 51.8594C46.1202 52.5625 46.3467 53.4219 46.3467 54.4375ZM43.253 54.5664C43.253 54.082 43.1631 53.6602 42.9835 53.3008C42.8038 52.9336 42.546 52.6484 42.21 52.4453C41.8819 52.2422 41.4835 52.1406 41.0147 52.1406C40.5616 52.1406 40.171 52.2383 39.8428 52.4336C39.5147 52.6289 39.2608 52.9102 39.0811 53.2773C38.9014 53.6367 38.8116 54.0664 38.8116 54.5664C38.8116 55.0586 38.9014 55.4883 39.0811 55.8555C39.2608 56.2227 39.5147 56.5117 39.8428 56.7227C40.1788 56.9258 40.5772 57.0273 41.0381 57.0273C41.4991 57.0273 41.8936 56.9258 42.2217 56.7227C42.5499 56.5117 42.8038 56.2227 42.9835 55.8555C43.1631 55.4883 43.253 55.0586 43.253 54.5664ZM60.4092 57.0039V59.875C60.4092 61.1875 60.2764 62.3086 60.0108 63.2383C59.7452 64.168 59.3624 64.9297 58.8624 65.5234C58.3624 66.1094 57.7647 66.543 57.0694 66.8242C56.3741 67.0977 55.6006 67.2344 54.7491 67.2344C54.0694 67.2344 53.4366 67.1484 52.8506 66.9766C52.2647 66.7969 51.7374 66.5234 51.2686 66.1562C50.8077 65.7812 50.4092 65.3047 50.0733 64.7266C49.7452 64.1484 49.4913 63.457 49.3116 62.6523C49.1397 61.8477 49.0538 60.9219 49.0538 59.875V57.0039C49.0538 55.6914 49.1866 54.5742 49.4522 53.6523C49.7256 52.7305 50.1124 51.9766 50.6124 51.3906C51.1124 50.8047 51.71 50.3789 52.4053 50.1133C53.1006 49.8398 53.8741 49.7031 54.7256 49.7031C55.4131 49.7031 56.046 49.7891 56.6241 49.9609C57.21 50.1328 57.7335 50.4023 58.1944 50.7695C58.6631 51.1289 59.0616 51.5977 59.3897 52.1758C59.7178 52.7461 59.9678 53.4336 60.1397 54.2383C60.3194 55.0352 60.4092 55.957 60.4092 57.0039ZM57.3155 60.2969V56.5703C57.3155 55.9141 57.2764 55.3438 57.1983 54.8594C57.128 54.3672 57.0225 53.9492 56.8819 53.6055C56.7413 53.2617 56.5655 52.9844 56.3545 52.7734C56.1436 52.5547 55.9014 52.3945 55.628 52.293C55.3545 52.1914 55.0538 52.1406 54.7256 52.1406C54.3194 52.1406 53.9561 52.2227 53.6358 52.3867C53.3155 52.543 53.046 52.793 52.8272 53.1367C52.6085 53.4805 52.4405 53.9375 52.3233 54.5078C52.2139 55.0703 52.1592 55.7578 52.1592 56.5703V60.2969C52.1592 60.9531 52.1944 61.5273 52.2647 62.0195C52.3428 62.5117 52.4522 62.9336 52.5928 63.2852C52.7413 63.6367 52.917 63.9258 53.1202 64.1523C53.3311 64.3711 53.5733 64.5352 53.8467 64.6445C54.1202 64.7461 54.421 64.7969 54.7491 64.7969C55.1631 64.7969 55.5264 64.7148 55.8389 64.5508C56.1592 64.3867 56.4288 64.1289 56.6475 63.7773C56.8663 63.418 57.0303 62.9531 57.1397 62.3828C57.2569 61.8047 57.3155 61.1094 57.3155 60.2969ZM62.7413 54.1211V53.2188C62.7413 52.5703 62.8819 51.9805 63.1631 51.4492C63.4444 50.918 63.8545 50.4922 64.3936 50.1719C64.9405 49.8516 65.6045 49.6914 66.3858 49.6914C67.1827 49.6914 67.8506 49.8516 68.3897 50.1719C68.9366 50.4922 69.3467 50.918 69.6202 51.4492C69.9014 51.9805 70.042 52.5703 70.042 53.2188V54.1211C70.042 54.7539 69.9014 55.3359 69.6202 55.8672C69.3467 56.3984 68.9405 56.8242 68.4014 57.1445C67.8624 57.4648 67.1983 57.625 66.4092 57.625C65.6202 57.625 64.9522 57.4648 64.4053 57.1445C63.8585 56.8242 63.4444 56.3984 63.1631 55.8672C62.8819 55.3359 62.7413 54.7539 62.7413 54.1211ZM64.8389 53.2188V54.1211C64.8389 54.418 64.8936 54.6992 65.003 54.9648C65.1202 55.2227 65.296 55.4336 65.5303 55.5977C65.7647 55.7617 66.0577 55.8438 66.4092 55.8438C66.7608 55.8438 67.046 55.7617 67.2647 55.5977C67.4913 55.4336 67.6592 55.2227 67.7686 54.9648C67.8858 54.6992 67.9444 54.418 67.9444 54.1211V53.2188C67.9444 52.9141 67.8858 52.6289 67.7686 52.3633C67.6592 52.0977 67.4874 51.8828 67.253 51.7188C67.0264 51.5547 66.7374 51.4727 66.3858 51.4727C66.042 51.4727 65.753 51.5547 65.5186 51.7188C65.292 51.8828 65.1202 52.0977 65.003 52.3633C64.8936 52.6289 64.8389 52.9141 64.8389 53.2188ZM70.9327 63.7188V62.8164C70.9327 62.1758 71.0733 61.5898 71.3545 61.0586C71.6436 60.5273 72.0616 60.1016 72.6085 59.7812C73.1553 59.4609 73.8155 59.3008 74.5889 59.3008C75.3936 59.3008 76.0655 59.4609 76.6045 59.7812C77.1436 60.1016 77.5499 60.5273 77.8233 61.0586C78.1045 61.5898 78.2452 62.1758 78.2452 62.8164V63.7188C78.2452 64.3594 78.1045 64.9453 77.8233 65.4766C77.5499 66.0078 77.1436 66.4336 76.6045 66.7539C76.0733 67.0742 75.4131 67.2344 74.6241 67.2344C73.835 67.2344 73.1631 67.0742 72.6085 66.7539C72.0616 66.4336 71.6436 66.0078 71.3545 65.4766C71.0733 64.9453 70.9327 64.3594 70.9327 63.7188ZM73.042 62.8164V63.7188C73.042 64.0234 73.1045 64.3086 73.2295 64.5742C73.3545 64.832 73.5342 65.043 73.7686 65.207C74.0108 65.3711 74.292 65.4531 74.6124 65.4531C75.003 65.4531 75.3116 65.3711 75.5381 65.207C75.7647 65.043 75.9249 64.832 76.0186 64.5742C76.1124 64.3086 76.1592 64.0234 76.1592 63.7188V62.8164C76.1592 62.5117 76.1006 62.2305 75.9835 61.9727C75.8663 61.707 75.6905 61.4922 75.4561 61.3281C75.2295 61.1641 74.9405 61.082 74.5889 61.082C74.2452 61.082 73.9561 61.1641 73.7217 61.3281C73.4952 61.4922 73.3233 61.707 73.2061 61.9727C73.0967 62.2305 73.042 62.5117 73.042 62.8164ZM75.3624 52.375L67.0303 65.7109L65.4952 64.8555L73.8272 51.5195L75.3624 52.375Z" fill="black"/>
</g>
<defs>
<clipPath id="clip0_110_69">
<rect width="113.885" height="117" fill="white"/>
</clipPath>
</defs>
</svg>
