<svg width="17" height="11" viewBox="0 0 17 11" fill="none" xmlns="http://www.w3.org/2000/svg">
<path d="M10.3163 2.33887H10.8163C10.8163 2.32903 10.816 2.3192 10.8154 2.30938L10.3163 2.33887ZM10.8856 1.35556L10.6627 0.908013L10.8856 1.35556ZM12.0134 1.49349L12.3473 1.12103L12.3377 1.11286L12.0134 1.49349ZM15.5334 4.64822L15.8713 4.27969L15.8671 4.27588L15.5334 4.64822ZM15.5334 6.34004L15.8672 6.71235L15.8713 6.70855L15.5334 6.34004ZM12.0134 9.49583L12.3378 9.87659L12.3472 9.86812L12.0134 9.49583ZM10.8856 9.63376L11.1086 9.18621L11.1086 9.18621L10.8856 9.63376ZM10.3163 8.65045L10.8154 8.67994C10.816 8.67012 10.8163 8.66029 10.8163 8.65045H10.3163ZM10.3163 5.99463C10.5925 5.99463 10.8163 5.77078 10.8163 5.49463C10.8163 5.21849 10.5925 4.99463 10.3163 4.99463V5.99463ZM1.00012 4.99463C0.72398 4.99463 0.500122 5.21849 0.500122 5.49463C0.500122 5.77078 0.72398 5.99463 1.00012 5.99463V4.99463ZM10.8163 5.49466V2.33887H9.8163V5.49466H10.8163ZM10.8154 2.30938C10.8029 2.09714 10.9182 1.89791 11.1086 1.80311L10.6627 0.908013C10.1137 1.18145 9.781 1.75615 9.81717 2.36836L10.8154 2.30938ZM11.1086 1.80311C11.2989 1.70832 11.5274 1.73626 11.6892 1.87413L12.3377 1.11286C11.8708 0.715187 11.2116 0.634574 10.6627 0.908013L11.1086 1.80311ZM11.6797 1.86583L15.1997 5.02056L15.8671 4.27588L12.3472 1.12115L11.6797 1.86583ZM15.1954 5.01673C15.3292 5.13941 15.4054 5.31261 15.4054 5.49413H16.4054C16.4054 5.03237 16.2116 4.5918 15.8713 4.27971L15.1954 5.01673ZM15.4054 5.49413C15.4054 5.67565 15.3292 5.84885 15.1954 5.97153L15.8713 6.70855C16.2116 6.39646 16.4054 5.95589 16.4054 5.49413H15.4054ZM15.1996 5.96775L11.6797 9.12355L12.3472 9.86812L15.8671 6.71232L15.1996 5.96775ZM11.6892 9.1152C11.5274 9.25306 11.2989 9.28101 11.1086 9.18621L10.6627 10.0813C11.2116 10.3548 11.8708 10.2741 12.3377 9.87647L11.6892 9.1152ZM11.1086 9.18621C10.9182 9.09142 10.8029 8.89218 10.8154 8.67994L9.81717 8.62097C9.781 9.23318 10.1137 9.80787 10.6627 10.0813L11.1086 9.18621ZM10.8163 8.65045V5.49466H9.8163V8.65045H10.8163ZM10.3163 4.99463H1.00012V5.99463H10.3163V4.99463Z" fill="black"/>
</svg>
